<?xml version="1.0" standalone="no"?>
<!DOCTYPE svg PUBLIC "-//W3C//DTD SVG 20010904//EN"
 "http://www.w3.org/TR/2001/REC-SVG-20010904/DTD/svg10.dtd">
<svg version="1.0" xmlns="http://www.w3.org/2000/svg"
 width="400.000000pt" height="400.000000pt" viewBox="0 0 400.000000 400.000000"
 preserveAspectRatio="xMidYMid meet">
<metadata>
Created by potrace 1.11, written by Peter Selinger 2001-2013
</metadata>
<g transform="translate(0.000000,400.000000) scale(0.100000,-0.100000)"
fill="#000000" stroke="none">
<path d="M634 3956 c-285 -74 -507 -289 -596 -578 l-23 -73 -3 -1283 c-2
-1252 -2 -1285 17 -1367 73 -305 296 -532 611 -622 62 -17 132 -18 1350 -18
l1285 0 85 22 c290 77 500 279 601 578 l24 70 3 1287 c3 1414 6 1335 -58 1494
-78 196 -253 373 -448 453 -155 64 -85 61 -1484 61 l-1273 -1 -91 -23z m1006
-791 c162 -36 357 -154 460 -277 105 -125 181 -292 214 -468 19 -101 20 -318
2 -413 l-13 -67 21 15 c94 69 156 88 269 83 102 -4 177 -36 242 -103 43 -45
115 -174 115 -208 0 -37 28 -47 131 -47 156 0 219 35 219 123 0 45 -4 54 -39
87 -25 24 -72 50 -132 74 -136 54 -211 99 -263 157 -90 100 -90 228 1 329 97
108 293 138 494 74 43 -13 80 -28 83 -32 2 -4 -3 -38 -11 -75 -14 -63 -17 -68
-37 -62 -110 36 -167 46 -248 43 -69 -2 -92 -7 -115 -24 -36 -27 -50 -73 -33
-113 15 -38 54 -62 214 -136 202 -93 279 -175 278 -300 0 -99 -40 -171 -125
-229 -82 -54 -145 -71 -274 -71 l-113 0 0 -25 c-1 -50 -30 -165 -59 -226 -32
-69 -93 -141 -157 -185 -52 -35 -170 -75 -249 -84 -56 -6 -180 6 -219 21 -15
6 -16 -14 -16 -210 l0 -216 -100 0 -100 0 0 450 0 451 -62 -54 c-300 -254
-753 -291 -1098 -90 -79 47 -198 157 -256 240 -142 198 -210 494 -173 760 34
255 125 442 291 598 122 116 279 193 447 220 107 18 308 13 411 -10z"/>
<path d="M1273 2959 c-237 -40 -418 -222 -494 -499 -20 -73 -24 -108 -24 -250
0 -149 3 -174 28 -264 66 -237 199 -393 397 -463 99 -35 278 -43 385 -19 186
44 319 152 404 329 69 142 86 225 86 417 0 187 -17 273 -81 409 -60 128 -160
230 -284 289 -123 58 -268 76 -417 51z"/>
<path d="M2413 1861 c-23 -11 -62 -38 -87 -62 l-46 -42 0 -284 c0 -261 1 -284
18 -291 9 -4 73 -7 142 -7 120 0 127 1 178 30 64 35 96 71 131 145 21 45 26
74 29 160 6 166 -33 276 -119 336 -37 25 -52 29 -123 32 -64 2 -90 -2 -123
-17z"/>
</g>
</svg>
