<?xml version="1.0" encoding="UTF-8" standalone="no"?>
<svg
   xmlns:dc="http://purl.org/dc/elements/1.1/"
   xmlns:cc="http://creativecommons.org/ns#"
   xmlns:rdf="http://www.w3.org/1999/02/22-rdf-syntax-ns#"
   xmlns:svg="http://www.w3.org/2000/svg"
   xmlns="http://www.w3.org/2000/svg"
   xmlns:sodipodi="http://sodipodi.sourceforge.net/DTD/sodipodi-0.dtd"
   xmlns:inkscape="http://www.inkscape.org/namespaces/inkscape"
   fill="#000000"
   viewBox="0 0 24 24"
   width="24px"
   height="24px"
   version="1.1"
   id="svg4"
   sodipodi:docname="about-us.svg"
   inkscape:version="0.92.3 (2405546, 2018-03-11)"
   inkscape:export-filename="/home/jay/Projects/arikitek/img/about-us.png"
   inkscape:export-xdpi="96"
   inkscape:export-ydpi="96">
  <metadata
     id="metadata10">
    <rdf:RDF>
      <cc:Work
         rdf:about="">
        <dc:format>image/svg+xml</dc:format>
        <dc:type
           rdf:resource="http://purl.org/dc/dcmitype/StillImage" />
      </cc:Work>
    </rdf:RDF>
  </metadata>
  <defs
     id="defs8" />
  <sodipodi:namedview
     pagecolor="#ffffff"
     bordercolor="#666666"
     borderopacity="1"
     objecttolerance="10"
     gridtolerance="10"
     guidetolerance="10"
     inkscape:pageopacity="0"
     inkscape:pageshadow="2"
     inkscape:window-width="1920"
     inkscape:window-height="1017"
     id="namedview6"
     showgrid="false"
     inkscape:zoom="9.8333333"
     inkscape:cx="-4.220339"
     inkscape:cy="12"
     inkscape:window-x="1280"
     inkscape:window-y="30"
     inkscape:window-maximized="1"
     inkscape:current-layer="svg4" />
  <path
     d="M 4 3 C 2.895 3 2 3.895 2 5 L 2 18 C 2 19.657 3.343 21 5 21 L 19 21 C 20.64497 21 22 19.64497 22 18 L 22 8 A 1.0001 1.0001 0 0 0 20.984375 6.9863281 A 1.0001 1.0001 0 0 0 20 8 L 20 18 C 20 18.56503 19.56503 19 19 19 C 18.448 19 18 18.551 18 18 L 18 5 C 18 3.895 17.105 3 16 3 L 4 3 z M 7 6 L 13 6 C 13.552 6 14 6.448 14 7 L 14 8 C 14 8.552 13.552 9 13 9 L 7 9 C 6.448 9 6 8.552 6 8 L 6 7 C 6 6.448 6.448 6 7 6 z M 7 12 L 13 12 C 13.552 12 14 12.448 14 13 C 14 13.552 13.552 14 13 14 L 7 14 C 6.448 14 6 13.552 6 13 C 6 12.448 6.448 12 7 12 z M 7 16 L 13 16 C 13.552 16 14 16.448 14 17 C 14 17.552 13.552 18 13 18 L 7 18 C 6.448 18 6 17.552 6 17 C 6 16.448 6.448 16 7 16 z"
     id="path2"
     style="stroke:none;stroke-opacity:1;fill:#ffffff;fill-opacity:1" />
</svg>
