<?xml version="1.0" encoding="UTF-8" standalone="no"?>
<svg
   xmlns:dc="http://purl.org/dc/elements/1.1/"
   xmlns:cc="http://creativecommons.org/ns#"
   xmlns:rdf="http://www.w3.org/1999/02/22-rdf-syntax-ns#"
   xmlns:svg="http://www.w3.org/2000/svg"
   xmlns="http://www.w3.org/2000/svg"
   xmlns:sodipodi="http://sodipodi.sourceforge.net/DTD/sodipodi-0.dtd"
   xmlns:inkscape="http://www.inkscape.org/namespaces/inkscape"
   fill="#000000"
   viewBox="0 0 24 24"
   width="24px"
   height="24px"
   version="1.1"
   id="svg4"
   sodipodi:docname="close-black.svg"
   inkscape:version="0.92.3 (2405546, 2018-03-11)"
   inkscape:export-filename="/home/jay/Projects/arikitek/img/icon/close-black.png"
   inkscape:export-xdpi="96"
   inkscape:export-ydpi="96">
  <metadata
     id="metadata10">
    <rdf:RDF>
      <cc:Work
         rdf:about="">
        <dc:format>image/svg+xml</dc:format>
        <dc:type
           rdf:resource="http://purl.org/dc/dcmitype/StillImage" />
      </cc:Work>
    </rdf:RDF>
  </metadata>
  <defs
     id="defs8" />
  <sodipodi:namedview
     pagecolor="#ffffff"
     bordercolor="#666666"
     borderopacity="1"
     objecttolerance="10"
     gridtolerance="10"
     guidetolerance="10"
     inkscape:pageopacity="0"
     inkscape:pageshadow="2"
     inkscape:window-width="1280"
     inkscape:window-height="991"
     id="namedview6"
     showgrid="false"
     inkscape:zoom="9.8333333"
     inkscape:cx="-5.7457627"
     inkscape:cy="12"
     inkscape:window-x="0"
     inkscape:window-y="0"
     inkscape:window-maximized="1"
     inkscape:current-layer="svg4" />
  <path
     d="M 3.2536351,2.0032221 A 1.2478647,1.2478647 0 0 0 2.383629,4.1453379 l 7.851989,7.8519891 -7.851989,7.851988 a 1.2478647,1.2478647 0 1 0 1.7643821,1.764382 L 12,13.761708 19.851988,21.613697 A 1.2478647,1.2478647 0 1 0 21.61637,19.849315 L 13.764381,11.997327 21.61637,4.1453379 A 1.2478647,1.2478647 0 0 0 20.709809,2.0032221 1.2478647,1.2478647 0 0 0 19.851988,2.3809559 L 12,10.232945 4.1480111,2.3809559 A 1.2478647,1.2478647 0 0 0 3.2536351,2.0032221 Z"
     id="path2"
     inkscape:connector-curvature="0"
     style="stroke-width:1" />
</svg>
