<?xml version="1.0" encoding="UTF-8" standalone="no"?>
<svg
   xmlns:dc="http://purl.org/dc/elements/1.1/"
   xmlns:cc="http://creativecommons.org/ns#"
   xmlns:rdf="http://www.w3.org/1999/02/22-rdf-syntax-ns#"
   xmlns:svg="http://www.w3.org/2000/svg"
   xmlns="http://www.w3.org/2000/svg"
   xmlns:sodipodi="http://sodipodi.sourceforge.net/DTD/sodipodi-0.dtd"
   xmlns:inkscape="http://www.inkscape.org/namespaces/inkscape"
   fill="#000000"
   viewBox="0 0 24 24"
   width="24px"
   height="24px"
   version="1.1"
   id="svg4"
   sodipodi:docname="contact-us.svg"
   inkscape:export-filename="/home/jay/Projects/arikitek/img/icon/contact-us.png"
   inkscape:export-xdpi="96"
   inkscape:export-ydpi="96"
   inkscape:version="0.92.3 (2405546, 2018-03-11)">
  <metadata
     id="metadata10">
    <rdf:RDF>
      <cc:Work
         rdf:about="">
        <dc:format>image/svg+xml</dc:format>
        <dc:type
           rdf:resource="http://purl.org/dc/dcmitype/StillImage" />
      </cc:Work>
    </rdf:RDF>
  </metadata>
  <defs
     id="defs8" />
  <sodipodi:namedview
     pagecolor="#ffffff"
     bordercolor="#666666"
     borderopacity="1"
     objecttolerance="10"
     gridtolerance="10"
     guidetolerance="10"
     inkscape:pageopacity="0"
     inkscape:pageshadow="2"
     inkscape:window-width="1280"
     inkscape:window-height="991"
     id="namedview6"
     showgrid="false"
     inkscape:zoom="9.8333333"
     inkscape:cx="-5.7457628"
     inkscape:cy="12"
     inkscape:window-x="0"
     inkscape:window-y="0"
     inkscape:window-maximized="1"
     inkscape:current-layer="svg4" />
  <path
     d="m 20.857305,2.000047 a 1.1106402,1.1106402 0 0 0 -0.123633,0.010845 h -5.407323 a 1.1106402,1.1106402 0 1 0 0,2.2210582 h 2.871759 L 7.8779961,14.552063 A 1.1106402,1.1106402 0 1 0 9.4483533,16.12242 L 19.768465,5.8023078 v 2.8717588 a 1.1106402,1.1106402 0 1 0 2.221059,0 V 3.2624062 A 1.1106402,1.1106402 0 0 0 20.857305,2.000047 Z M 4.2210584,2.010892 c -1.2138781,0 -2.2210582,1.0071802 -2.2210582,2.2210582 V 19.779358 c 0,1.213878 1.0071801,2.221058 2.2210582,2.221058 H 19.768465 c 1.213879,0 2.221059,-1.00718 2.221059,-2.221058 v -6.663175 a 1.1106402,1.1106402 0 1 0 -2.221059,0 v 6.663175 H 4.2210584 V 4.2319502 h 6.6631746 a 1.1106402,1.1106402 0 1 0 0,-2.2210582 z"
     id="path2"
     style="fill:#ffffff;fill-opacity:1;stroke-width:0.99999994"
     inkscape:connector-curvature="0" />
</svg>
