<?xml version="1.0" encoding="UTF-8" standalone="no"?>
<svg
   xmlns:dc="http://purl.org/dc/elements/1.1/"
   xmlns:cc="http://creativecommons.org/ns#"
   xmlns:rdf="http://www.w3.org/1999/02/22-rdf-syntax-ns#"
   xmlns:svg="http://www.w3.org/2000/svg"
   xmlns="http://www.w3.org/2000/svg"
   xmlns:sodipodi="http://sodipodi.sourceforge.net/DTD/sodipodi-0.dtd"
   xmlns:inkscape="http://www.inkscape.org/namespaces/inkscape"
   fill="#000000"
   viewBox="0 0 24 24"
   width="24px"
   height="24px"
   version="1.1"
   id="svg4"
   sodipodi:docname="home.svg"
   inkscape:version="0.92.3 (2405546, 2018-03-11)"
   inkscape:export-filename="/home/jay/Projects/arikitek/img/icon/home.png"
   inkscape:export-xdpi="96"
   inkscape:export-ydpi="96">
  <metadata
     id="metadata10">
    <rdf:RDF>
      <cc:Work
         rdf:about="">
        <dc:format>image/svg+xml</dc:format>
        <dc:type
           rdf:resource="http://purl.org/dc/dcmitype/StillImage" />
      </cc:Work>
    </rdf:RDF>
  </metadata>
  <defs
     id="defs8" />
  <sodipodi:namedview
     pagecolor="#ffffff"
     bordercolor="#666666"
     borderopacity="1"
     objecttolerance="10"
     gridtolerance="10"
     guidetolerance="10"
     inkscape:pageopacity="0"
     inkscape:pageshadow="2"
     inkscape:window-width="1280"
     inkscape:window-height="991"
     id="namedview6"
     showgrid="false"
     inkscape:zoom="9.8333333"
     inkscape:cx="12"
     inkscape:cy="12"
     inkscape:window-x="0"
     inkscape:window-y="0"
     inkscape:window-maximized="1"
     inkscape:current-layer="svg4" />
  <path
     d="M 12,3.3636363 A 0.90909091,0.90909091 0 0 0 11.353693,3.6335228 L 2.1846591,11.634233 A 0.45454546,0.45454546 0 0 0 2,12 0.45454546,0.45454546 0 0 0 2.4545455,12.454546 h 2.2727272 v 7.272727 c 0,0.501818 0.4072728,0.909091 0.9090909,0.909091 h 3.6363637 c 0.5018182,0 0.9090907,-0.407273 0.9090907,-0.909091 v -5.454545 h 3.636364 v 5.454545 c 0,0.501818 0.407273,0.909091 0.909091,0.909091 h 3.636363 c 0.501819,0 0.909091,-0.407273 0.909091,-0.909091 v -7.272727 h 2.272728 A 0.45454546,0.45454546 0 0 0 22,12 0.45454546,0.45454546 0 0 0 21.815341,11.634233 L 12.651634,3.6388494 a 0.90909091,0.90909091 0 0 0 -0.0053,-0.00533 A 0.90909091,0.90909091 0 0 0 12,3.3636363 Z"
     id="path2"
     style="fill:#ffffff;fill-opacity:1;stroke-width:1"
     inkscape:export-xdpi="96"
     inkscape:export-ydpi="96"
     inkscape:connector-curvature="0" />
</svg>
