<?xml version="1.0" encoding="UTF-8" standalone="no"?>
<!-- Created with Inkscape (http://www.inkscape.org/) -->

<svg
   xmlns:dc="http://purl.org/dc/elements/1.1/"
   xmlns:cc="http://creativecommons.org/ns#"
   xmlns:rdf="http://www.w3.org/1999/02/22-rdf-syntax-ns#"
   xmlns:svg="http://www.w3.org/2000/svg"
   xmlns="http://www.w3.org/2000/svg"
   xmlns:sodipodi="http://sodipodi.sourceforge.net/DTD/sodipodi-0.dtd"
   xmlns:inkscape="http://www.inkscape.org/namespaces/inkscape"
   width="24.000004"
   height="24.02866"
   viewBox="0 0 6.3500009 6.357583"
   version="1.1"
   id="svg8"
   inkscape:version="0.92.3 (2405546, 2018-03-11)"
   sodipodi:docname="opsapp-white.svg"
   inkscape:export-filename="/home/jay/Projects/arikitek/img/icon/opsapp-white.png"
   inkscape:export-xdpi="96"
   inkscape:export-ydpi="96">
  <defs
     id="defs2" />
  <sodipodi:namedview
     id="base"
     pagecolor="#ffffff"
     bordercolor="#666666"
     borderopacity="1.0"
     inkscape:pageopacity="0.0"
     inkscape:pageshadow="2"
     inkscape:zoom="11.313709"
     inkscape:cx="11.689422"
     inkscape:cy="9.377148"
     inkscape:document-units="px"
     inkscape:current-layer="layer1"
     showgrid="false"
     borderlayer="true"
     inkscape:showpageshadow="false"
     fit-margin-top="0"
     fit-margin-left="0"
     fit-margin-right="0"
     fit-margin-bottom="0"
     inkscape:window-width="1280"
     inkscape:window-height="991"
     inkscape:window-x="0"
     inkscape:window-y="0"
     inkscape:window-maximized="1"
     inkscape:snap-bbox="true"
     inkscape:bbox-paths="true"
     inkscape:bbox-nodes="true"
     inkscape:snap-bbox-edge-midpoints="true"
     inkscape:snap-bbox-midpoints="true"
     inkscape:object-paths="true"
     inkscape:snap-intersection-paths="true"
     inkscape:snap-smooth-nodes="true"
     inkscape:snap-midpoints="true"
     inkscape:snap-object-midpoints="true"
     inkscape:snap-center="true"
     inkscape:snap-text-baseline="true"
     inkscape:snap-page="true"
     showguides="true"
     inkscape:guide-bbox="true"
     units="px" />
  <metadata
     id="metadata5">
    <rdf:RDF>
      <cc:Work
         rdf:about="">
        <dc:format>image/svg+xml</dc:format>
        <dc:type
           rdf:resource="http://purl.org/dc/dcmitype/StillImage" />
        <dc:title></dc:title>
      </cc:Work>
    </rdf:RDF>
  </metadata>
  <g
     inkscape:label="Layer 1"
     inkscape:groupmode="layer"
     id="layer1"
     transform="translate(-0.89278716,-186.18166)">
    <g
       id="g820"
       transform="matrix(0.83333334,0,0,0.83333334,0.67796503,31.560219)"
       style="stroke-width:1.19999993">
      <path
         id="rect1067"
         transform="matrix(0.26458333,0,0,0.26458333,0.89278716,186.18166)"
         d="M 5.0605469,0.01367188 C 2.2571779,0.01367188 0,2.2708498 0,5.0742188 V 18.955078 c 0,2.803369 2.2571779,5.058594 5.0605469,5.058594 H 18.939453 C 21.742822,24.013672 24,21.758447 24,18.955078 V 5.0742188 C 24,2.2708498 21.742822,0.01367188 18.939453,0.01367188 Z M 8.9785156,4.2753906 c 2.3456844,0.1541061 4.1323454,1.5937872 4.8203124,3.9570313 0.276095,0.9602645 0.3176,2.3582851 0.101563,3.3906251 l -0.03516,0.175781 0.275391,-0.210937 c 0.42613,-0.324284 0.768382,-0.431641 1.392578,-0.431641 0.46215,0 0.588717,0.02265 0.882813,0.162109 0.636196,0.294048 1.067948,0.834126 1.332031,1.650391 l 0.101562,0.3125 0.396485,0.04102 c 0.780236,0.07824 1.423316,-0.101012 1.609375,-0.455078 0.240075,-0.468171 -0.01815,-0.858487 -0.822266,-1.22461 -1.152366,-0.528151 -1.380021,-0.655434 -1.662109,-0.9375 -0.360114,-0.360189 -0.444068,-0.599855 -0.414063,-1.1640624 0.01814,-0.3541417 0.04748,-0.4853586 0.185547,-0.6894531 0.198047,-0.3000945 0.612501,-0.5769277 1.056641,-0.7089844 0.636197,-0.1799055 2.202143,-0.00826 2.490234,0.28125 0.04199,0.041953 -0.05326,0.7460593 -0.113281,0.8300781 -0.006,0.00756 -0.156031,-0.043233 -0.330078,-0.109375 -0.474144,-0.1859527 -1.177521,-0.2639709 -1.597656,-0.1796874 -0.450139,0.096 -0.623047,0.2651122 -0.623047,0.6191406 0,0.3662362 0.149273,0.4853706 1.265625,1.0195316 1.416446,0.672226 1.782679,1.080069 1.722656,1.902343 -0.03591,0.486123 -0.215782,0.840118 -0.587891,1.158203 -0.456147,0.390123 -1.351041,0.624885 -2.113281,0.546876 l -0.408203,-0.04297 v 0.300781 c 0,0.990312 -0.63587,2.040505 -1.494141,2.472656 -0.594191,0.306142 -1.019869,0.383825 -1.746094,0.341797 -0.348094,-0.0189 -0.70294,-0.04845 -0.792968,-0.07227 l -0.167969,-0.03711 v 1.296875 1.296875 h -0.541016 -0.539062 v -2.730469 c 0,-1.50051 -0.02502,-2.730468 -0.04883,-2.730468 -0.02381,0 -0.155203,0.108328 -0.28125,0.240234 C 11.29665,15.567156 9.5738148,16.10178 7.8632762,15.927732 5.1324214,15.651829 3.3377739,13.717742 3.0136719,10.716797 2.8876246,9.5524 3.1222092,8.2796712 3.6503906,7.1933594 4.1965626,6.0889814 4.8737824,5.3877141 5.9121094,4.8535156 6.530304,4.5292322 7.1551587,4.3550908 7.9414062,4.2890625 8.2977685,4.2575507 8.6434179,4.2533755 8.9785156,4.2753906 Z m -0.4667968,1.25 c -2.0346407,0.00756 -3.4395282,1.2553353 -3.8476563,3.4160156 -0.1320567,0.7262741 -0.090213,2.0696608 0.089844,2.7539058 0.4321361,1.644511 1.5606025,2.724619 3.1210938,2.970704 0.4321361,0.06614 1.2725145,0.02279 1.7226562,-0.08984 1.0143195,-0.258142 1.8421145,-0.958907 2.3222655,-1.949219 0.150047,-0.312189 0.31915,-0.739453 0.367187,-0.9375 C 12.449176,11.047236 12.515359,10.172189 12.443359,9.5 12.35934,8.6837354 12.243897,8.2560989 11.925781,7.5898438 11.553649,6.8216548 10.995617,6.2581763 10.275391,5.9160156 9.6211846,5.6038266 9.2439493,5.5193812 8.5117188,5.5253906 Z m 6.6191402,6.5117184 c -0.38337,0.03149 -0.783225,0.211138 -1.152343,0.535157 l -0.275391,0.246093 0.01172,1.716797 0.01758,1.722656 0.271484,0.07031 c 0.414127,0.114142 1.290281,0.06644 1.650391,-0.0957 0.846266,-0.372284 1.277285,-1.337144 1.115234,-2.519531 -0.08402,-0.64218 -0.257918,-1.032199 -0.582031,-1.320313 -0.306099,-0.270085 -0.67327,-0.386962 -1.056641,-0.355469 z"
         style="opacity:1;fill:#ffffff;fill-opacity:1;stroke:none;stroke-width:1.19999957;stroke-opacity:1"
         inkscape:connector-curvature="0" />
      <path
         id="rect1211"
         transform="matrix(0.26458333,0,0,0.26458333,0.89278716,186.18166)"
         d="M 5.0605469,0.01367188 C 2.2571776,0.01367188 0,2.2708676 0,5.0742188 V 16.337891 l 4.40625,7.630859 c 0.2143219,0.02646 0.4322708,0.04492 0.6542969,0.04492 H 18.939453 C 21.742822,24.013672 24,21.756476 24,18.953125 V 7.6894531 L 19.59375,0.05859375 C 19.379262,0.03213706 19.161657,0.01367188 18.939453,0.01367188 Z M 8.9785156,4.2753906 c 2.3456844,0.1541061 4.1323454,1.5937872 4.8203124,3.9570313 0.276095,0.9602645 0.3176,2.3582851 0.101563,3.3906251 l -0.03516,0.175781 0.275391,-0.210937 c 0.42613,-0.324284 0.768382,-0.431641 1.392578,-0.431641 0.46215,0 0.588717,0.02265 0.882813,0.162109 0.636196,0.294048 1.067948,0.834126 1.332031,1.650391 l 0.101562,0.3125 0.396485,0.04102 c 0.780236,0.07824 1.423316,-0.101012 1.609375,-0.455078 0.240075,-0.468171 -0.01815,-0.858487 -0.822266,-1.22461 -1.152366,-0.528151 -1.380021,-0.655434 -1.662109,-0.9375 -0.360114,-0.360189 -0.444068,-0.599855 -0.414063,-1.1640624 0.01814,-0.3541417 0.04748,-0.4853586 0.185547,-0.6894531 0.198047,-0.3000945 0.612501,-0.5769277 1.056641,-0.7089844 0.636197,-0.1799055 2.202143,-0.00826 2.490234,0.28125 0.04199,0.041953 -0.05326,0.7460593 -0.113281,0.8300781 -0.006,0.00756 -0.156031,-0.043233 -0.330078,-0.109375 -0.474144,-0.1859527 -1.177521,-0.2639709 -1.597656,-0.1796874 -0.450139,0.096 -0.623047,0.2651122 -0.623047,0.6191406 0,0.3662362 0.149273,0.4853706 1.265625,1.0195316 1.416446,0.672226 1.782679,1.080069 1.722656,1.902343 -0.03591,0.486123 -0.215782,0.840118 -0.587891,1.158203 -0.456147,0.390123 -1.351041,0.624885 -2.113281,0.546876 l -0.408203,-0.04297 v 0.300781 c 0,0.990312 -0.63587,2.040505 -1.494141,2.472656 -0.594191,0.306142 -1.019869,0.383825 -1.746094,0.341797 -0.348094,-0.0189 -0.70294,-0.04845 -0.792968,-0.07227 l -0.167969,-0.03711 v 1.296875 1.296875 h -0.541016 -0.539062 v -2.730469 c 0,-1.50051 -0.02502,-2.730468 -0.04883,-2.730468 -0.02381,0 -0.155203,0.108328 -0.28125,0.240234 C 11.29665,15.567156 9.5738148,16.10178 7.8632762,15.927732 5.1324214,15.651829 3.3377739,13.717742 3.0136719,10.716797 2.8876246,9.5524 3.1222092,8.2796712 3.6503906,7.1933594 4.1965626,6.0889814 4.8737824,5.3877141 5.9121094,4.8535156 6.530304,4.5292322 7.1551587,4.3550908 7.9414062,4.2890625 8.2977685,4.2575507 8.6434179,4.2533755 8.9785156,4.2753906 Z m -0.4667968,1.25 c -2.0346407,0.00756 -3.4395282,1.2553353 -3.8476563,3.4160156 -0.1320567,0.7262741 -0.090213,2.0696608 0.089844,2.7539058 0.4321361,1.644511 1.5606025,2.724619 3.1210938,2.970704 0.4321361,0.06614 1.2725145,0.02279 1.7226562,-0.08984 1.0143195,-0.258142 1.8421145,-0.958907 2.3222655,-1.949219 0.150047,-0.312189 0.31915,-0.739453 0.367187,-0.9375 C 12.449176,11.047236 12.515359,10.172189 12.443359,9.5 12.35934,8.6837354 12.243897,8.2560989 11.925781,7.5898438 11.553649,6.8216548 10.995617,6.2581763 10.275391,5.9160156 9.6211846,5.6038266 9.2439493,5.5193812 8.5117188,5.5253906 Z m 6.6191402,6.5117184 c -0.38337,0.03149 -0.783225,0.211138 -1.152343,0.535157 l -0.275391,0.246093 0.01172,1.716797 0.01758,1.722656 0.271484,0.07031 c 0.414127,0.114142 1.290281,0.06644 1.650391,-0.0957 0.846266,-0.372284 1.277285,-1.337144 1.115234,-2.519531 -0.08402,-0.64218 -0.257918,-1.032199 -0.582031,-1.320313 -0.306099,-0.270085 -0.67327,-0.386962 -1.056641,-0.355469 z"
         style="opacity:1;fill:#ffffff;fill-opacity:1;stroke:none;stroke-width:1.19999957;stroke-opacity:1"
         inkscape:connector-curvature="0" />
      <path
         id="rect1207"
         transform="matrix(0.26458333,0,0,0.26458333,0.89278716,186.18166)"
         d="M 5.0605469,0.01367188 C 2.2571776,0.01367188 0,2.2708676 0,5.0742188 V 9.7949219 L 8.2089844,24.013672 H 18.939453 C 21.742822,24.013672 24,21.756476 24,18.953125 V 12.388672 L 16.853516,0.01367188 Z M 8.9785156,4.2753906 c 2.3456844,0.1541061 4.1323474,1.5937872 4.8203124,3.9570313 0.276095,0.9602645 0.3176,2.3582851 0.101563,3.3906251 l -0.03516,0.175781 0.275391,-0.210937 c 0.426134,-0.324284 0.768381,-0.431641 1.392578,-0.431641 0.462145,0 0.588719,0.02265 0.882813,0.162109 0.6362,0.294048 1.067948,0.834126 1.332031,1.650391 l 0.101562,0.3125 0.396485,0.04102 c 0.780245,0.07824 1.423317,-0.101012 1.609375,-0.455078 0.240075,-0.468171 -0.01815,-0.858487 -0.822266,-1.22461 -1.152363,-0.528151 -1.38002,-0.655434 -1.662109,-0.9375 -0.360114,-0.360189 -0.444072,-0.599855 -0.414063,-1.1640624 0.01814,-0.3541417 0.04748,-0.4853586 0.185547,-0.6894531 0.198047,-0.3000945 0.612501,-0.5769277 1.056641,-0.7089844 0.636196,-0.1799055 2.202144,-0.00826 2.490234,0.28125 0.04199,0.041953 -0.05326,0.7460593 -0.113281,0.8300781 -0.006,0.00756 -0.156031,-0.043233 -0.330078,-0.109375 -0.474145,-0.1859527 -1.17752,-0.2639709 -1.597656,-0.1796874 -0.450138,0.096 -0.623047,0.2651122 -0.623047,0.6191406 0,0.3662362 0.149274,0.4853706 1.265625,1.0195316 1.416446,0.672226 1.782679,1.080069 1.722656,1.902343 -0.03591,0.486123 -0.215785,0.840118 -0.587891,1.158203 -0.456148,0.390123 -1.351041,0.624885 -2.113281,0.546876 l -0.408203,-0.04297 v 0.300781 c 0,0.990312 -0.63587,2.040505 -1.494141,2.472656 -0.594191,0.306142 -1.019869,0.383825 -1.746094,0.341797 -0.348094,-0.0189 -0.70294,-0.04845 -0.792968,-0.07227 l -0.167969,-0.03711 v 1.296875 1.296875 h -0.541016 -0.539062 v -2.730469 c 0,-1.50051 -0.02502,-2.730468 -0.04883,-2.730468 -0.02381,0 -0.155203,0.108328 -0.28125,0.240234 C 11.29665,15.567156 9.5738148,16.10178 7.8632762,15.927732 5.1324214,15.651829 3.3377739,13.717742 3.0136719,10.716797 2.8876246,9.5524 3.1222092,8.2796712 3.6503906,7.1933594 4.1965626,6.0889814 4.8737824,5.3877141 5.9121094,4.8535156 6.530304,4.5292322 7.1551587,4.3550908 7.9414062,4.2890625 8.2977685,4.2575507 8.6434179,4.2533755 8.9785156,4.2753906 Z m -0.4667968,1.25 C 6.4770781,5.5329497 5.072191,6.7807259 4.6640625,8.9414062 4.5320058,9.6676803 4.5738496,11.011067 4.7539062,11.695312 5.1860423,13.339823 6.3145087,14.419931 7.875,14.666016 c 0.4321361,0.06614 1.2725145,0.02279 1.7226562,-0.08984 1.0143198,-0.258142 1.8421148,-0.958907 2.3222658,-1.949219 0.150047,-0.312189 0.31915,-0.739453 0.367187,-0.9375 C 12.449176,11.047236 12.515359,10.172189 12.443359,9.5 12.35934,8.6837354 12.243897,8.2560989 11.925781,7.5898438 11.553649,6.8216548 10.995618,6.2581763 10.275391,5.9160156 9.6211846,5.6038266 9.2439493,5.5193812 8.5117188,5.5253906 Z m 6.6191402,6.5117184 c -0.38337,0.03149 -0.783225,0.211138 -1.152343,0.535157 l -0.275391,0.246093 0.01172,1.716797 0.01758,1.722656 0.271484,0.07031 c 0.41413,0.114142 1.290278,0.06644 1.650391,-0.0957 0.846267,-0.372284 1.277285,-1.337144 1.115234,-2.519531 -0.08402,-0.64218 -0.257917,-1.032199 -0.582031,-1.320313 -0.306098,-0.270085 -0.67327,-0.386962 -1.056641,-0.355469 z"
         style="opacity:1;fill:#ffffff;fill-opacity:1;stroke:none;stroke-width:1.19999957;stroke-opacity:1"
         inkscape:connector-curvature="0" />
    </g>
  </g>
</svg>
