<?xml version="1.0" encoding="UTF-8" standalone="no"?>
<!-- Created with Inkscape (http://www.inkscape.org/) -->

<svg
   xmlns:dc="http://purl.org/dc/elements/1.1/"
   xmlns:cc="http://creativecommons.org/ns#"
   xmlns:rdf="http://www.w3.org/1999/02/22-rdf-syntax-ns#"
   xmlns:svg="http://www.w3.org/2000/svg"
   xmlns="http://www.w3.org/2000/svg"
   xmlns:sodipodi="http://sodipodi.sourceforge.net/DTD/sodipodi-0.dtd"
   xmlns:inkscape="http://www.inkscape.org/namespaces/inkscape"
   width="6.3500009mm"
   height="6.357583mm"
   viewBox="0 0 6.3500009 6.357583"
   version="1.1"
   id="svg8"
   inkscape:version="0.92.3 (2405546, 2018-03-11)"
   sodipodi:docname="opsapp-white.svg"
   inkscape:export-filename="/home/jay/Projects/arikitek/img/icon/opsapp-white.png"
   inkscape:export-xdpi="96"
   inkscape:export-ydpi="96">
  <defs
     id="defs2" />
  <sodipodi:namedview
     id="base"
     pagecolor="#ffffff"
     bordercolor="#666666"
     borderopacity="1.0"
     inkscape:pageopacity="0.0"
     inkscape:pageshadow="2"
     inkscape:zoom="11.313709"
     inkscape:cx="-9.8499378"
     inkscape:cy="11.660363"
     inkscape:document-units="mm"
     inkscape:current-layer="layer1"
     showgrid="false"
     borderlayer="true"
     inkscape:showpageshadow="false"
     fit-margin-top="0"
     fit-margin-left="0"
     fit-margin-right="0"
     fit-margin-bottom="0"
     inkscape:window-width="1920"
     inkscape:window-height="1017"
     inkscape:window-x="1280"
     inkscape:window-y="30"
     inkscape:window-maximized="1"
     inkscape:snap-bbox="true"
     inkscape:bbox-paths="true"
     inkscape:bbox-nodes="true"
     inkscape:snap-bbox-edge-midpoints="true"
     inkscape:snap-bbox-midpoints="true"
     inkscape:object-paths="true"
     inkscape:snap-intersection-paths="true"
     inkscape:snap-smooth-nodes="true"
     inkscape:snap-midpoints="true"
     inkscape:snap-object-midpoints="true"
     inkscape:snap-center="true"
     inkscape:snap-text-baseline="true"
     inkscape:snap-page="true"
     showguides="true"
     inkscape:guide-bbox="true" />
  <metadata
     id="metadata5">
    <rdf:RDF>
      <cc:Work
         rdf:about="">
        <dc:format>image/svg+xml</dc:format>
        <dc:type
           rdf:resource="http://purl.org/dc/dcmitype/StillImage" />
        <dc:title></dc:title>
      </cc:Work>
    </rdf:RDF>
  </metadata>
  <g
     inkscape:label="Layer 1"
     inkscape:groupmode="layer"
     id="layer1"
     transform="translate(-0.89278716,-186.18166)">
    <path
       style="opacity:1;fill:#057598;fill-opacity:1;stroke:none;stroke-width:0.9999997;stroke-opacity:1"
       d="M 5.0605469 0.013671875 C 2.2571779 0.013671875 0 2.2708498 0 5.0742188 L 0 18.955078 C -5.9211895e-16 21.758447 2.2571779 24.013672 5.0605469 24.013672 L 18.939453 24.013672 C 21.742822 24.013672 24 21.758447 24 18.955078 L 24 5.0742188 C 24 2.2708498 21.742822 0.013671875 18.939453 0.013671875 L 5.0605469 0.013671875 z M 8.9785156 4.2753906 C 11.3242 4.4294967 13.110861 5.8691778 13.798828 8.2324219 C 14.074923 9.1926864 14.116428 10.590707 13.900391 11.623047 L 13.865234 11.798828 L 14.140625 11.587891 C 14.566755 11.263607 14.909007 11.15625 15.533203 11.15625 C 15.995353 11.15625 16.12192 11.178895 16.416016 11.318359 C 17.052212 11.612407 17.483964 12.152485 17.748047 12.96875 L 17.849609 13.28125 L 18.246094 13.322266 C 19.02633 13.400502 19.66941 13.221254 19.855469 12.867188 C 20.095544 12.399017 19.83732 12.008701 19.033203 11.642578 C 17.880837 11.114427 17.653182 10.987144 17.371094 10.705078 C 17.01098 10.344889 16.927026 10.105223 16.957031 9.5410156 C 16.975173 9.1868739 17.004512 9.055657 17.142578 8.8515625 C 17.340625 8.551468 17.755079 8.2746348 18.199219 8.1425781 C 18.835416 7.9626726 20.401362 8.1343163 20.689453 8.4238281 C 20.731444 8.4657809 20.636191 9.1698874 20.576172 9.2539062 C 20.570162 9.2614653 20.420141 9.210673 20.246094 9.1445312 C 19.77195 8.9585785 19.068573 8.8805603 18.648438 8.9648438 C 18.198299 9.0608438 18.025391 9.229956 18.025391 9.5839844 C 18.025391 9.9502206 18.174664 10.069355 19.291016 10.603516 C 20.707462 11.275742 21.073695 11.683585 21.013672 12.505859 C 20.977766 12.991982 20.79789 13.345977 20.425781 13.664062 C 19.969634 14.054185 19.07474 14.288947 18.3125 14.210938 L 17.904297 14.167969 L 17.904297 14.46875 C 17.904297 15.459062 17.268427 16.509255 16.410156 16.941406 C 15.815965 17.247548 15.390287 17.325231 14.664062 17.283203 C 14.315968 17.264305 13.961122 17.234749 13.871094 17.210938 L 13.703125 17.173828 L 13.703125 18.470703 L 13.703125 19.767578 L 13.162109 19.767578 L 12.623047 19.767578 L 12.623047 17.037109 C 12.623047 15.536599 12.59803 14.306641 12.574219 14.306641 C 12.550408 14.306641 12.419016 14.414969 12.292969 14.546875 C 11.296655 15.567158 9.5738198 16.101782 7.8632812 15.927734 C 5.1324214 15.651829 3.3377739 13.717742 3.0136719 10.716797 C 2.8876246 9.5524 3.1222092 8.2796712 3.6503906 7.1933594 C 4.1965626 6.0889814 4.8737824 5.3877141 5.9121094 4.8535156 C 6.530304 4.5292322 7.1551587 4.3550908 7.9414062 4.2890625 C 8.2977685 4.2575507 8.6434179 4.2533755 8.9785156 4.2753906 z M 8.5117188 5.5253906 C 6.4770781 5.5329497 5.0721906 6.7807259 4.6640625 8.9414062 C 4.5320058 9.6676803 4.5738496 11.011067 4.7539062 11.695312 C 5.1860423 13.339823 6.3145087 14.419931 7.875 14.666016 C 8.3071361 14.732157 9.1475145 14.688802 9.5976562 14.576172 C 10.611976 14.31803 11.439771 13.617265 11.919922 12.626953 C 12.069969 12.314764 12.239072 11.8875 12.287109 11.689453 C 12.449176 11.047236 12.515359 10.172189 12.443359 9.5 C 12.35934 8.6837354 12.243897 8.2560989 11.925781 7.5898438 C 11.553649 6.8216548 10.995617 6.2581763 10.275391 5.9160156 C 9.6211846 5.6038266 9.2439493 5.5193812 8.5117188 5.5253906 z M 15.130859 12.037109 C 14.747489 12.068602 14.347634 12.248247 13.978516 12.572266 L 13.703125 12.818359 L 13.714844 14.535156 L 13.732422 16.257812 L 14.003906 16.328125 C 14.418033 16.442267 15.294187 16.394564 15.654297 16.232422 C 16.500563 15.860138 16.931582 14.895278 16.769531 13.712891 C 16.685512 13.070711 16.511613 12.680692 16.1875 12.392578 C 15.881401 12.122493 15.51423 12.005616 15.130859 12.037109 z "
       transform="matrix(0.26458333,0,0,0.26458333,0.89278716,186.18166)"
       id="rect1067" />
    <path
       style="opacity:1;fill:#21859b;fill-opacity:1;stroke:none;stroke-width:0.9999997;stroke-opacity:1"
       d="M 5.0605469 0.013671875 C 2.2571776 0.013671875 -1.1842379e-15 2.2708676 0 5.0742188 L 0 16.337891 L 4.40625 23.96875 C 4.6205719 23.995207 4.8385208 24.013672 5.0605469 24.013672 L 18.939453 24.013672 C 21.742822 24.013672 24 21.756476 24 18.953125 L 24 7.6894531 L 19.59375 0.05859375 C 19.379262 0.032137057 19.161657 0.013671875 18.939453 0.013671875 L 5.0605469 0.013671875 z M 8.9785156 4.2753906 C 11.3242 4.4294967 13.110861 5.8691778 13.798828 8.2324219 C 14.074923 9.1926864 14.116428 10.590707 13.900391 11.623047 L 13.865234 11.798828 L 14.140625 11.587891 C 14.566755 11.263607 14.909007 11.15625 15.533203 11.15625 C 15.995353 11.15625 16.12192 11.178895 16.416016 11.318359 C 17.052212 11.612407 17.483964 12.152485 17.748047 12.96875 L 17.849609 13.28125 L 18.246094 13.322266 C 19.02633 13.400502 19.66941 13.221254 19.855469 12.867188 C 20.095544 12.399017 19.83732 12.008701 19.033203 11.642578 C 17.880837 11.114427 17.653182 10.987144 17.371094 10.705078 C 17.01098 10.344889 16.927026 10.105223 16.957031 9.5410156 C 16.975173 9.1868739 17.004512 9.055657 17.142578 8.8515625 C 17.340625 8.551468 17.755079 8.2746348 18.199219 8.1425781 C 18.835416 7.9626726 20.401362 8.1343163 20.689453 8.4238281 C 20.731444 8.4657809 20.636191 9.1698874 20.576172 9.2539062 C 20.570162 9.2614653 20.420141 9.210673 20.246094 9.1445312 C 19.77195 8.9585785 19.068573 8.8805603 18.648438 8.9648438 C 18.198299 9.0608438 18.025391 9.229956 18.025391 9.5839844 C 18.025391 9.9502206 18.174664 10.069355 19.291016 10.603516 C 20.707462 11.275742 21.073695 11.683585 21.013672 12.505859 C 20.977766 12.991982 20.79789 13.345977 20.425781 13.664062 C 19.969634 14.054185 19.07474 14.288947 18.3125 14.210938 L 17.904297 14.167969 L 17.904297 14.46875 C 17.904297 15.459062 17.268427 16.509255 16.410156 16.941406 C 15.815965 17.247548 15.390287 17.325231 14.664062 17.283203 C 14.315968 17.264305 13.961122 17.234749 13.871094 17.210938 L 13.703125 17.173828 L 13.703125 18.470703 L 13.703125 19.767578 L 13.162109 19.767578 L 12.623047 19.767578 L 12.623047 17.037109 C 12.623047 15.536599 12.59803 14.306641 12.574219 14.306641 C 12.550408 14.306641 12.419016 14.414969 12.292969 14.546875 C 11.296655 15.567158 9.5738198 16.101782 7.8632812 15.927734 C 5.1324214 15.651829 3.3377739 13.717742 3.0136719 10.716797 C 2.8876246 9.5524 3.1222092 8.2796712 3.6503906 7.1933594 C 4.1965626 6.0889814 4.8737824 5.3877141 5.9121094 4.8535156 C 6.530304 4.5292322 7.1551587 4.3550908 7.9414062 4.2890625 C 8.2977685 4.2575507 8.6434179 4.2533755 8.9785156 4.2753906 z M 8.5117188 5.5253906 C 6.4770781 5.5329497 5.0721906 6.7807259 4.6640625 8.9414062 C 4.5320058 9.6676803 4.5738496 11.011067 4.7539062 11.695312 C 5.1860423 13.339823 6.3145087 14.419931 7.875 14.666016 C 8.3071361 14.732157 9.1475145 14.688802 9.5976562 14.576172 C 10.611976 14.31803 11.439771 13.617265 11.919922 12.626953 C 12.069969 12.314764 12.239072 11.8875 12.287109 11.689453 C 12.449176 11.047236 12.515359 10.172189 12.443359 9.5 C 12.35934 8.6837354 12.243897 8.2560989 11.925781 7.5898438 C 11.553649 6.8216548 10.995617 6.2581763 10.275391 5.9160156 C 9.6211846 5.6038266 9.2439493 5.5193812 8.5117188 5.5253906 z M 15.130859 12.037109 C 14.747489 12.068602 14.347634 12.248247 13.978516 12.572266 L 13.703125 12.818359 L 13.714844 14.535156 L 13.732422 16.257812 L 14.003906 16.328125 C 14.418033 16.442267 15.294187 16.394564 15.654297 16.232422 C 16.500563 15.860138 16.931582 14.895278 16.769531 13.712891 C 16.685512 13.070711 16.511613 12.680692 16.1875 12.392578 C 15.881401 12.122493 15.51423 12.005616 15.130859 12.037109 z "
       transform="matrix(0.26458333,0,0,0.26458333,0.89278716,186.18166)"
       id="rect1211" />
    <path
       style="opacity:1;fill:#00a5b4;fill-opacity:1;stroke:none;stroke-width:0.9999997;stroke-opacity:1"
       d="M 5.0605469 0.013671875 C 2.2571776 0.013671875 -1.1842379e-15 2.2708676 0 5.0742188 L 0 9.7949219 L 8.2089844 24.013672 L 18.939453 24.013672 C 21.742822 24.013672 24 21.756476 24 18.953125 L 24 12.388672 L 16.853516 0.013671875 L 5.0605469 0.013671875 z M 8.9785156 4.2753906 C 11.3242 4.4294967 13.110863 5.8691778 13.798828 8.2324219 C 14.074923 9.1926864 14.116428 10.590707 13.900391 11.623047 L 13.865234 11.798828 L 14.140625 11.587891 C 14.566759 11.263607 14.909006 11.15625 15.533203 11.15625 C 15.995348 11.15625 16.121922 11.178895 16.416016 11.318359 C 17.052216 11.612407 17.483964 12.152485 17.748047 12.96875 L 17.849609 13.28125 L 18.246094 13.322266 C 19.026339 13.400502 19.669411 13.221254 19.855469 12.867188 C 20.095544 12.399017 19.837321 12.008701 19.033203 11.642578 C 17.88084 11.114427 17.653183 10.987144 17.371094 10.705078 C 17.01098 10.344889 16.927022 10.105223 16.957031 9.5410156 C 16.975173 9.1868739 17.004512 9.055657 17.142578 8.8515625 C 17.340625 8.551468 17.755079 8.2746348 18.199219 8.1425781 C 18.835415 7.9626726 20.401363 8.1343163 20.689453 8.4238281 C 20.731444 8.4657809 20.636191 9.1698874 20.576172 9.2539062 C 20.570162 9.2614653 20.420141 9.210673 20.246094 9.1445312 C 19.771949 8.9585785 19.068574 8.8805603 18.648438 8.9648438 C 18.1983 9.0608438 18.025391 9.229956 18.025391 9.5839844 C 18.025391 9.9502206 18.174665 10.069355 19.291016 10.603516 C 20.707462 11.275742 21.073695 11.683585 21.013672 12.505859 C 20.977766 12.991982 20.797887 13.345977 20.425781 13.664062 C 19.969633 14.054185 19.07474 14.288947 18.3125 14.210938 L 17.904297 14.167969 L 17.904297 14.46875 C 17.904297 15.459062 17.268427 16.509255 16.410156 16.941406 C 15.815965 17.247548 15.390287 17.325231 14.664062 17.283203 C 14.315968 17.264305 13.961122 17.234749 13.871094 17.210938 L 13.703125 17.173828 L 13.703125 18.470703 L 13.703125 19.767578 L 13.162109 19.767578 L 12.623047 19.767578 L 12.623047 17.037109 C 12.623047 15.536599 12.59803 14.306641 12.574219 14.306641 C 12.550408 14.306641 12.419016 14.414969 12.292969 14.546875 C 11.296655 15.567158 9.5738198 16.101782 7.8632812 15.927734 C 5.1324214 15.651829 3.3377739 13.717742 3.0136719 10.716797 C 2.8876246 9.5524 3.1222092 8.2796712 3.6503906 7.1933594 C 4.1965626 6.0889814 4.8737824 5.3877141 5.9121094 4.8535156 C 6.530304 4.5292322 7.1551587 4.3550908 7.9414062 4.2890625 C 8.2977685 4.2575507 8.6434179 4.2533755 8.9785156 4.2753906 z M 8.5117188 5.5253906 C 6.4770781 5.5329497 5.072191 6.7807259 4.6640625 8.9414062 C 4.5320058 9.6676803 4.5738496 11.011067 4.7539062 11.695312 C 5.1860423 13.339823 6.3145087 14.419931 7.875 14.666016 C 8.3071361 14.732157 9.1475145 14.688802 9.5976562 14.576172 C 10.611976 14.31803 11.439771 13.617265 11.919922 12.626953 C 12.069969 12.314764 12.239072 11.8875 12.287109 11.689453 C 12.449176 11.047236 12.515359 10.172189 12.443359 9.5 C 12.35934 8.6837354 12.243897 8.2560989 11.925781 7.5898438 C 11.553649 6.8216548 10.995618 6.2581763 10.275391 5.9160156 C 9.6211846 5.6038266 9.2439493 5.5193812 8.5117188 5.5253906 z M 15.130859 12.037109 C 14.747489 12.068602 14.347634 12.248247 13.978516 12.572266 L 13.703125 12.818359 L 13.714844 14.535156 L 13.732422 16.257812 L 14.003906 16.328125 C 14.418036 16.442267 15.294184 16.394564 15.654297 16.232422 C 16.500564 15.860138 16.931582 14.895278 16.769531 13.712891 C 16.685512 13.070711 16.511614 12.680692 16.1875 12.392578 C 15.881402 12.122493 15.51423 12.005616 15.130859 12.037109 z "
       transform="matrix(0.26458333,0,0,0.26458333,0.89278716,186.18166)"
       id="rect1207" />
  </g>
</svg>
