<?xml version="1.0" encoding="UTF-8" standalone="no"?>
<svg
   xmlns:dc="http://purl.org/dc/elements/1.1/"
   xmlns:cc="http://creativecommons.org/ns#"
   xmlns:rdf="http://www.w3.org/1999/02/22-rdf-syntax-ns#"
   xmlns:svg="http://www.w3.org/2000/svg"
   xmlns="http://www.w3.org/2000/svg"
   xmlns:sodipodi="http://sodipodi.sourceforge.net/DTD/sodipodi-0.dtd"
   xmlns:inkscape="http://www.inkscape.org/namespaces/inkscape"
   fill="#000000"
   viewBox="0 0 24 24"
   width="24px"
   height="24px"
   version="1.1"
   id="svg4"
   sodipodi:docname="what-we-do.svg"
   inkscape:version="0.92.3 (2405546, 2018-03-11)"
   inkscape:export-filename="/home/jay/Projects/arikitek/img/icon/what-we-do.png"
   inkscape:export-xdpi="96"
   inkscape:export-ydpi="96">
  <metadata
     id="metadata10">
    <rdf:RDF>
      <cc:Work
         rdf:about="">
        <dc:format>image/svg+xml</dc:format>
        <dc:type
           rdf:resource="http://purl.org/dc/dcmitype/StillImage" />
      </cc:Work>
    </rdf:RDF>
  </metadata>
  <defs
     id="defs8" />
  <sodipodi:namedview
     pagecolor="#ffffff"
     bordercolor="#666666"
     borderopacity="1"
     objecttolerance="10"
     gridtolerance="10"
     guidetolerance="10"
     inkscape:pageopacity="0"
     inkscape:pageshadow="2"
     inkscape:window-width="1280"
     inkscape:window-height="991"
     id="namedview6"
     showgrid="false"
     inkscape:zoom="9.8333333"
     inkscape:cx="-5.7457628"
     inkscape:cy="12"
     inkscape:window-x="0"
     inkscape:window-y="0"
     inkscape:window-maximized="1"
     inkscape:current-layer="svg4" />
  <path
     d="M 19.777778,2 H 4.2222222 C 2.9966666,2 2,2.9966667 2,4.2222222 V 19.777778 C 2,21.003333 2.9966666,22 4.2222222,22 H 19.777778 C 21.003333,22 22,21.003333 22,19.777778 V 4.2222222 C 22,2.9966667 21.003333,2 19.777778,2 Z M 5.641111,7.0866666 C 5.9499999,6.6788888 6.4177777,6.4244444 6.9277777,6.4455555 7.6899999,6.4766666 8.111111,7.0244444 8.111111,7.0244444 c 0,0 0.4211111,-0.5477778 1.182222,-0.5788889 0.511111,-0.021111 0.978889,0.2333333 1.286667,0.6411111 1.073333,1.4177778 -0.958889,3.0766664 -1.436667,3.5222224 -0.2855553,0.266667 -0.6388887,0.583333 -0.8488886,0.77 -0.1055556,0.09444 -0.2622223,0.09444 -0.3677778,0 -0.2111111,-0.187778 -0.5633334,-0.504445 -0.8488889,-0.77 -0.4777778,-0.445556 -2.51,-2.1044446 -1.4366667,-3.5222224 z M 17.555555,17.555555 H 6.4444444 c -0.6133334,0 -1.1111111,-0.497777 -1.1111111,-1.111111 v 0 c 0,-0.613333 0.4977777,-1.111111 1.1111111,-1.111111 H 17.555555 c 0.613334,0 1.111111,0.497778 1.111111,1.111111 v 0 c 0,0.613334 -0.497777,1.111111 -1.111111,1.111111 z m 0,-4.444444 H 13.111111 C 12.497778,13.111111 12,12.613333 12,12 v 0 c 0,-0.613333 0.497778,-1.111111 1.111111,-1.111111 h 4.444444 c 0.613334,0 1.111111,0.497778 1.111111,1.111111 v 0 c 0,0.613333 -0.497777,1.111111 -1.111111,1.111111 z m 0,-4.4444444 h -2.222222 c -0.613333,0 -1.111111,-0.4977778 -1.111111,-1.1111111 v 0 c 0,-0.6133333 0.497778,-1.1111111 1.111111,-1.1111111 h 2.222222 c 0.613334,0 1.111111,0.4977778 1.111111,1.1111111 v 0 c 0,0.6133333 -0.497777,1.1111111 -1.111111,1.1111111 z"
     id="path2"
     style="fill:#ffffff;fill-opacity:1;stroke-width:0.99999994"
     inkscape:export-xdpi="96"
     inkscape:export-ydpi="96"
     inkscape:connector-curvature="0" />
</svg>
